<svg xmlns="http://www.w3.org/2000/svg" version="1.1" xmlns:xlink="http://www.w3.org/1999/xlink" xmlns:svgjs="http://svgjs.com/svgjs" width="2500" height="1300" preserveAspectRatio="none" viewBox="0 0 2500 1300"><g mask="url(&quot;#SvgjsMask1065&quot;)" fill="none"><path d="M -1410.4896324829879,563 C -1243.69,621.6 -910.09,899.2 -576.4896324829879,856 C -242.89,812.8 -76.09,299.6 257.5103675170121,347 C 591.11,394.4 757.91,1115.6 1091.5103675170121,1093 C 1425.11,1070.4 1643.81,242.4 1925.5103675170121,234 C 2207.21,225.6 2385.1,887.6 2500,1051" stroke="rgba(208, 232, 208, 1)" stroke-width="2"></path><path d="M -1079.8793758569834,814 C -913.08,714.6 -579.48,317.8 -245.87937585698336,317 C 87.72,316.2 254.52,803.4 588.1206241430166,810 C 921.72,816.6 1088.52,375.8 1422.1206241430166,350 C 1755.72,324.2 2040.54,632 2256.120624143017,681 C 2471.7,730 2451.22,612.2 2500,595" stroke="rgba(208, 232, 208, 1)" stroke-width="2"></path><path d="M -1637.4462069896754,411 C -1470.65,545 -1137.05,1097.8 -803.4462069896755,1081 C -469.85,1064.2 -303.05,386.6 30.55379301032451,327 C 364.15,267.4 530.95,810.6 864.5537930103245,783 C 1198.15,755.4 1371.46,143.6 1698.5537930103246,189 C 2025.64,234.4 2339.71,845.8 2500,1010" stroke="rgba(208, 232, 208, 1)" stroke-width="2"></path><path d="M -630.3868628960656,450 C -463.59,575.8 -129.99,1133 203.61313710393438,1079 C 537.21,1025 704.01,171 1037.6131371039344,180 C 1371.21,189 1538.01,1093.6 1871.6131371039344,1124 C 2205.21,1154.4 2579.94,407.8 2705.6131371039346,332 C 2831.29,256.2 2541.12,662.4 2500,745" stroke="rgba(208, 232, 208, 1)" stroke-width="2"></path></g><defs><mask id="SvgjsMask1065"><rect width="2500" height="1300" fill="#ffffff"></rect></mask></defs></svg>