<svg xmlns="http://www.w3.org/2000/svg" version="1.1" xmlns:xlink="http://www.w3.org/1999/xlink" xmlns:svgjs="http://svgjs.com/svgjs" width="850" height="600" preserveAspectRatio="none" viewBox="0 0 850 600"><g mask="url(&quot;#SvgjsMask1010&quot;)" fill="none"><rect width="850" height="600" x="0" y="0" fill="rgba(253, 249, 246, 1)"></rect><path d="M0 42.07C25.59 4.24 49.45 14.59 101.47 0C124.45 -6.45 125.74 0 150 0C225 0 225 0 300 0C375 0 375 0 450 0C525 0 525 0 600 0C669.87 0 706.05 -36.17 739.73 0C775.88 38.83 747.15 75.75 739.66 150C732.02 225.75 707.95 225.32 709.46 300C710.98 375.32 726.1 376.04 745.71 450C746.37 452.48 747.46 452.46 750 452.88C824.6 465.11 858.84 434.93 900 475.3C933.84 508.49 934.05 571.7 900 600C859.05 634.05 825 600 750 600C686.25 600 680.06 612.05 622.5 600C605.06 596.35 612.36 568.6 600 568.6C586.11 568.6 589.93 595.83 570 600C514.93 611.53 510 600 450 600C375 600 375 600 300 600C225 600 225 600 150 600C75 600 48.13 626.87 0 600C-26.87 585.01 -18.77 548.88 0 516.28C24.41 473.88 85.09 492.23 86.36 450C88.35 384.09 47.72 373.91 6.52 300C4.54 296.45 0.17 299.08 0 295.08C-3.09 224.08 0 222.54 0 150C0 96.03 -25.14 79.24 0 42.07" stroke="rgba(208, 232, 208, 1)" stroke-width="2"></path><path d="M758.11 150C747.94 76.96 729.41 39.79 767.05 0C800.35 -35.21 868.77 -35.24 900 0C935.24 39.76 900 75 900 150C900 225 900 225 900 300C900 351.66 919.54 403.33 900 403.33C873.95 403.33 841.83 358.94 808.82 300C770.89 232.28 768.83 226.96 758.11 150" stroke="rgba(161, 129, 108, 1)" stroke-width="2"></path><path d="M300 235.71C269.06 241.75 261.86 271.84 261.86 300C261.86 317.7 282.23 312.11 300 327.44C369.2 387.11 370.84 386.34 435.81 450C445.84 459.83 441.17 474.42 450 474.42C461.07 474.42 473.01 466.65 475.61 450C486.64 379.44 487.08 371.55 477.27 300C474.28 278.18 470.45 270.69 450 263.27C381.82 238.54 363.13 223.39 300 235.71" stroke="rgba(208, 232, 208, 1)" stroke-width="2"></path><path d="M0 87.8C53.44 78.37 76.51 101.37 150 123.53C179.63 132.47 199.18 124.17 206.25 150C223.33 212.41 172.75 239.16 198.31 300C219.63 350.74 251.23 334.01 300 373.17C344.64 409.01 385.14 408.95 385.14 450C385.14 496.59 346.67 548.44 300 548.44C244.66 548.44 234.34 504.43 181.13 450C159.34 427.71 166.66 421.84 150 395C120.11 346.84 126.07 340.92 88.04 300C51.07 260.22 25.04 276.27 0 233.61C-18.98 201.27 0 191.81 0 150C0 118.9 -21.56 91.6 0 87.8" stroke="rgba(161, 129, 108, 1)" stroke-width="2"></path><path d="M344.12 150C311.91 96.54 307.24 42.88 337.5 0C360.18 -32.12 393.75 0 450 0C525 0 525 0 600 0C644.18 0 686.59 -25.74 688.36 0C691.76 49.26 617.99 72.37 610.34 150C603.2 222.37 651.58 223.48 658.78 300C665.69 373.48 660.69 381.73 638.57 450C631.3 472.43 618.67 481.4 600 481.4C582.92 481.4 574.6 470.73 567.07 450C541.65 380.03 564.6 368.61 534.09 300C506.07 236.98 502.93 228.53 450 186.73C407.95 153.53 368.16 189.9 344.12 150" stroke="rgba(208, 232, 208, 1)" stroke-width="2"></path><path d="M859.46 150C851.98 75.39 836.89 56.91 852.27 0C857.16 -18.09 894.24 -18.1 900 0C918.1 56.9 900 75 900 150C900 225 900 225 900 300C900 310 903.78 320 900 320C894.96 320 885.38 312.71 882.35 300C865.11 227.71 867.02 225.39 859.46 150" stroke="rgba(208, 232, 208, 1)" stroke-width="2"></path><path d="M400 600C400 589.3 426.48 561.63 450 561.63C469.81 561.63 486.67 588.65 486.67 600C486.67 607.84 468.34 600 450 600C425 600 400 608.49 400 600" stroke="rgba(208, 232, 208, 1)" stroke-width="2"></path><path d="M685 600C685 577.34 707.21 540.83 750 525C814.71 501.07 850.98 495.97 900 520.48C925.98 533.47 925.98 586.22 900 600C850.98 625.98 825 600 750 600C717.5 600 685 614.84 685 600" stroke="rgba(161, 129, 108, 1)" stroke-width="2"></path><path d="M0 133.54C16.09 133.54 43.55 140.58 43.55 150C43.55 159.88 14.99 172.13 0 172.13C-6.79 172.13 0 161.06 0 150C0 141.77 -5.69 133.54 0 133.54" stroke="rgba(208, 232, 208, 1)" stroke-width="2"></path><path d="M600 65.85C548.22 65.85 477.27 17.5 477.27 0C477.27 -15.42 538.63 0 600 0C618.49 0 636.99 -10.82 636.99 0C636.99 22.1 628.08 65.85 600 65.85" stroke="rgba(161, 129, 108, 1)" stroke-width="2"></path><path d="M590.91 300C590.91 288.68 595.67 277.78 600 277.78C604.27 277.78 608.11 288.72 608.11 300C608.11 314.83 604.28 330 600 330C595.68 330 590.91 314.79 590.91 300" stroke="rgba(208, 232, 208, 1)" stroke-width="2"></path><path d="M251.89 450C251.89 433.03 277.19 418.9 300 418.9C318.48 418.9 334.46 433.38 334.46 450C334.46 468.85 318.89 489.84 300 489.84C277.6 489.84 251.89 468.5 251.89 450" stroke="rgba(161, 129, 108, 1)" stroke-width="2"></path><path d="M747.5 600C747.5 599.13 748.15 597.54 750 597.12C824.4 580.37 838.73 564.48 900 565.66C913.73 565.92 913.97 596.8 900 600C838.97 613.97 825 600 750 600C748.75 600 747.5 600.57 747.5 600" stroke="rgba(208, 232, 208, 1)" stroke-width="2"></path></g><defs><mask id="SvgjsMask1010"><rect width="850" height="600" fill="#ffffff"></rect></mask></defs></svg>