<svg xmlns="http://www.w3.org/2000/svg" version="1.1" xmlns:xlink="http://www.w3.org/1999/xlink" xmlns:svgjs="http://svgjs.com/svgjs" width="2560" height="1000" preserveAspectRatio="none" viewBox="0 0 2560 1000"><g mask="url(&quot;#SvgjsMask1035&quot;)" fill="none"><path d="M0 83.33C15.57 32.72 27.44 16.49 76.92 0C152.44 -25.17 163.46 0 250 0C375 0 375 0 500 0C625 0 625 0 750 0C875 0 875 0 1000 0C1125 0 1125 0 1250 0C1375 0 1375 0 1500 0C1625 0 1625 0 1750 0C1875 0 1875 0 2000 0C2125 0 2125 0 2250 0C2375 0 2375 0 2500 0C2625 0 2639.7 -14.7 2750 0C2764.7 1.96 2753.04 16.99 2750 33.33C2729.82 141.99 2703.57 145.27 2703.57 250C2703.57 294.23 2741.72 286.66 2750 331.25C2764.93 411.66 2750 415.63 2750 500C2750 625 2750 625 2750 750C2750 846.15 2783.94 866.89 2750 942.31C2727.69 991.89 2697.38 986.18 2637.5 1000C2572.38 1015.03 2568.75 1000 2500 1000C2458.34 1000 2435.83 1030.25 2416.67 1000C2356.66 905.25 2395.7 866.01 2341.67 750C2312.37 687.09 2290.99 642.16 2250 642.16C2213.9 642.16 2199.08 690.49 2187.5 750C2164.27 869.41 2234.85 927.38 2180.38 1000C2141.1 1052.38 2090.19 1000 2000 1000C1875 1000 1875 1000 1750 1000C1625 1000 1625 1000 1500 1000C1375 1000 1375 1000 1250 1000C1125 1000 1125 1000 1000 1000C875 1000 875 1000 750 1000C625 1000 625 1000 500 1000C375 1000 375 1000 250 1000C125 1000 62.5 1062.5 0 1000C-62.5 937.5 0 875 0 750C0 625 0 625 0 500C0 375 0 375 0 250C0 166.66 -22.89 157.72 0 83.33" stroke="rgba(161, 129, 108, 1)" stroke-width="2"></path><path d="M500 152.78C433.68 152.78 361.84 190.15 361.84 250C361.84 332.51 435.94 437.5 500 437.5C559.71 437.5 609.38 335.03 609.38 250C609.38 192.67 557.45 152.78 500 152.78" stroke="rgba(161, 129, 108, 1)" stroke-width="2"></path><path d="M1000 117.65C959.99 117.65 965.93 182.6 937.5 250C885.29 373.78 820.11 399.96 838.71 500C851.36 568.06 915.76 551.46 1000 586.21C1121.4 636.28 1134.96 612.12 1250 669.64C1298.76 694.02 1279.88 724.18 1327.59 750C1404.88 791.83 1419.37 804.95 1500 804.95C1537.62 804.95 1564.1 787.37 1564.1 750C1564.1 640.85 1535.79 628.72 1500 511.9C1497.49 503.72 1494.63 504.85 1487.5 500C1369.63 419.74 1368.75 420.84 1250 341.67C1181.25 295.84 1173.44 304.61 1112.5 250C1048.44 192.6 1047.49 117.65 1000 117.65" stroke="rgba(208, 232, 208, 1)" stroke-width="2"></path><path d="M2000 418.1C1946.89 418.1 1892.05 463.69 1892.05 500C1892.05 532.58 1946.53 555.88 2000 555.88C2049.99 555.88 2098.96 532.34 2098.96 500C2098.96 463.45 2050.35 418.1 2000 418.1" stroke="rgba(161, 129, 108, 1)" stroke-width="2"></path><path d="M2500 435.06C2448.68 435.06 2397.96 464.09 2397.96 500C2397.96 539.66 2448.54 586.21 2500 586.21C2552.75 586.21 2606.38 539.56 2606.38 500C2606.38 463.99 2552.89 435.06 2500 435.06" stroke="rgba(161, 129, 108, 1)" stroke-width="2"></path><path d="M0 170.14C66.46 170.14 96.97 203.09 185.48 250C221.97 269.34 222.56 271.56 250 302.63C332.95 396.56 328.12 401.32 406.25 500C453.12 559.21 435.88 604.53 500 618.42C607.76 641.76 630.48 556.41 750 574.47C880.48 594.18 875.34 633.53 1000 693.97C1056.37 721.3 1071.58 704.94 1112.07 750C1196.58 844.06 1154.33 941.73 1250 972.22C1348.3 1003.55 1384.52 938.73 1500 873.63C1581.63 827.62 1592.77 826.91 1644.23 750C1717.77 640.1 1662.67 529.6 1750 500C1840.56 469.3 1885.16 551.07 2000 629.41C2068.4 676.07 2096.18 675.7 2116.48 750C2146.81 861 2142.74 910.99 2101.27 1000C2084.5 1035.99 2050.64 1000 2000 1000C1885.71 1000 1881.98 1009.21 1771.43 1000C1756.98 998.8 1759.85 979.17 1750 979.17C1741.48 979.17 1747.09 998.97 1734.69 1000C1622.09 1009.38 1617.35 1000 1500 1000C1375 1000 1375 1000 1250 1000C1125 1000 1125 1000 1000 1000C875 1000 875 1000 750 1000C625 1000 625 1000 500 1000C375 1000 375 1000 250 1000C125 1000 65.38 1059.62 0 1000C-59.62 945.65 -12.89 879.51 0 772.06C2.11 754.51 26.94 767.6 30 750C50.59 631.57 58.84 618.62 47.3 500C43.84 464.45 6.66 476.86 0 441.67C-16.99 351.86 0 345.84 0 250C0 210.07 -26.28 170.14 0 170.14" stroke="rgba(161, 129, 108, 1)" stroke-width="2"></path><path d="M250 195.95C177.52 188.12 157.05 68.58 157.05 0C157.05 -29.39 203.52 0 250 0C375 0 375 0 500 0C625 0 625 0 750 0C806.45 0 860.85 -36.96 862.9 0C867.79 88.04 813.97 125.24 763.89 250C757.52 265.87 756.19 281.25 750 281.25C744.04 281.25 751.23 261.38 739.58 250C626.23 139.27 627.22 51.09 500 37.04C382.43 24.06 349 206.64 250 195.95" stroke="rgba(161, 129, 108, 1)" stroke-width="2"></path><path d="M1250 147.06C1166.01 100.93 1114.86 43.86 1114.86 0C1114.86 -29.67 1182.43 0 1250 0C1375 0 1375 0 1500 0C1559.78 0 1577.23 -32.78 1619.57 0C1702.23 63.99 1659.08 159.15 1750 193.55C1849.29 231.12 1878.06 179.37 2000 143.94C2128.06 106.72 2125.52 97.4 2250 48.25C2307.81 25.43 2304.75 11.55 2364.58 0C2429.75 -12.58 2432.29 0 2500 0C2545.14 0 2575.17 -33.05 2590.28 0C2632.31 91.95 2642.24 140.43 2614.29 250C2597.1 317.38 2562.26 308.64 2500 353.9C2390.32 433.64 2383.63 424.95 2270.41 500C2258.63 507.81 2260.25 519.61 2250 519.61C2239.63 519.61 2240.14 509.18 2229.17 500C2115.14 404.55 2116.59 310.34 2000 310.34C1877.01 310.34 1855.2 515.52 1750 500C1650.66 485.35 1684.68 358.19 1590.91 250C1559.68 213.96 1547.15 225.78 1500 211.54C1376.69 174.31 1358.58 206.7 1250 147.06" stroke="rgba(208, 232, 208, 1)" stroke-width="2"></path><path d="M2739.36 500C2745.68 494.78 2746.98 487.5 2750 487.5C2752.3 487.5 2750 493.75 2750 500C2750 625 2750 625 2750 750C2750 766.03 2763.48 775.56 2750 782.05C2638.48 835.74 2601.54 881.07 2500 870.37C2449.45 865.04 2445.83 805.46 2445.83 750C2445.83 717.26 2470.37 719.21 2500 693.97C2617.13 594.21 2620.68 598.01 2739.36 500" stroke="rgba(161, 129, 108, 1)" stroke-width="2"></path><path d="M250 27.03C239.32 27.03 237.18 9.46 237.18 0C237.18 -4.05 243.59 0 250 0C273.81 0 297.62 -6.29 297.62 0C297.62 7.23 269.54 27.03 250 27.03" stroke="rgba(208, 232, 208, 1)" stroke-width="2"></path><path d="M2085.94 250C2085.94 198.21 2161.1 177.67 2250 157.89C2368.13 131.61 2400.49 124.56 2500 157.89C2537.99 170.61 2525 207.59 2525 250C2525 265.01 2515.29 265.78 2500 272.73C2377.79 328.28 2367.39 381.44 2250 375C2160.36 370.08 2085.94 306.77 2085.94 250" stroke="rgba(161, 129, 108, 1)" stroke-width="2"></path><path d="M216.22 500C216.22 478.46 234.17 467.11 250 467.11C264.08 467.11 276.04 480.2 276.04 500C276.04 574.77 264.89 656.25 250 656.25C234.98 656.25 216.22 573.03 216.22 500" stroke="rgba(161, 129, 108, 1)" stroke-width="2"></path><path d="M596.15 750C670.03 721.36 674.49 707.45 750 707.45C801.41 707.45 841.17 706.09 850 750C870.58 852.37 849.4 898.55 808.82 1000C799.4 1023.55 779.41 1000 750 1000C625 1000 625 1000 500 1000C375 1000 375 1000 250 1000C125 1000 106.25 1018.75 0 1000C-18.75 996.69 -17.1 967.28 0 955.88C107.9 883.94 118.69 873.12 250 833.33C368.69 797.36 379.71 833.31 500 804.35C552.79 791.64 545.03 769.81 596.15 750" stroke="rgba(208, 232, 208, 1)" stroke-width="2"></path><path d="M1724.36 750C1724.36 719.9 1721.31 694.29 1750 689.39C1859.13 670.76 1882.88 678.91 2000 702.94C2030.61 709.22 2043.16 719.3 2045.45 750C2054.24 867.83 2043.03 885.13 2022.15 1000C2020.31 1010.13 2011.07 1000 2000 1000C1975 1000 1969 1014.78 1950 1000C1844 917.56 1842.52 908.07 1750 805.56C1729.7 783.07 1724.36 777.99 1724.36 750" stroke="rgba(208, 232, 208, 1)" stroke-width="2"></path><path d="M1380.68 1000C1380.68 984.82 1440.97 942.31 1500 942.31C1554.2 942.31 1607.14 984.66 1607.14 1000C1607.14 1013.51 1553.57 1000 1500 1000C1440.34 1000 1380.68 1013.67 1380.68 1000" stroke="rgba(208, 232, 208, 1)" stroke-width="2"></path></g><defs><mask id="SvgjsMask1035"><rect width="2560" height="1000" fill="#ffffff"></rect></mask></defs></svg>